<svg id="visual" viewBox="0 0 960 540" width="960" height="540" xmlns="http://www.w3.org/2000/svg" xmlns:xlink="http://www.w3.org/1999/xlink" version="1.1"><path d="M0 411L22.8 410.8C45.7 410.7 91.3 410.3 137 418.3C182.7 426.3 228.3 442.7 274 450.2C319.7 457.7 365.3 456.3 411.2 454C457 451.7 503 448.3 548.8 443.8C594.7 439.3 640.3 433.7 686 428.7C731.7 423.7 777.3 419.3 823 424.5C868.7 429.7 914.3 444.3 937.2 451.7L960 459L960 541L937.2 541C914.3 541 868.7 541 823 541C777.3 541 731.7 541 686 541C640.3 541 594.7 541 548.8 541C503 541 457 541 411.2 541C365.3 541 319.7 541 274 541C228.3 541 182.7 541 137 541C91.3 541 45.7 541 22.8 541L0 541Z" fill="#f4801f"></path><path d="M0 463L22.8 463.7C45.7 464.3 91.3 465.7 137 464.5C182.7 463.3 228.3 459.7 274 460.2C319.7 460.7 365.3 465.3 411.2 461C457 456.7 503 443.3 548.8 438.2C594.7 433 640.3 436 686 442.3C731.7 448.7 777.3 458.3 823 463.5C868.7 468.7 914.3 469.3 937.2 469.7L960 470L960 541L937.2 541C914.3 541 868.7 541 823 541C777.3 541 731.7 541 686 541C640.3 541 594.7 541 548.8 541C503 541 457 541 411.2 541C365.3 541 319.7 541 274 541C228.3 541 182.7 541 137 541C91.3 541 45.7 541 22.8 541L0 541Z" fill="#f89b33"></path><path d="M0 472L22.8 472.5C45.7 473 91.3 474 137 476.3C182.7 478.7 228.3 482.3 274 482.8C319.7 483.3 365.3 480.7 411.2 476.7C457 472.7 503 467.3 548.8 463.2C594.7 459 640.3 456 686 459.2C731.7 462.3 777.3 471.7 823 472C868.7 472.3 914.3 463.7 937.2 459.3L960 455L960 541L937.2 541C914.3 541 868.7 541 823 541C777.3 541 731.7 541 686 541C640.3 541 594.7 541 548.8 541C503 541 457 541 411.2 541C365.3 541 319.7 541 274 541C228.3 541 182.7 541 137 541C91.3 541 45.7 541 22.8 541L0 541Z" fill="#f9ab41"></path><path d="M0 502L22.8 501.8C45.7 501.7 91.3 501.3 137 499.3C182.7 497.3 228.3 493.7 274 493.7C319.7 493.7 365.3 497.3 411.2 499.8C457 502.3 503 503.7 548.8 501.3C594.7 499 640.3 493 686 488.3C731.7 483.7 777.3 480.3 823 483.3C868.7 486.3 914.3 495.7 937.2 500.3L960 505L960 541L937.2 541C914.3 541 868.7 541 823 541C777.3 541 731.7 541 686 541C640.3 541 594.7 541 548.8 541C503 541 457 541 411.2 541C365.3 541 319.7 541 274 541C228.3 541 182.7 541 137 541C91.3 541 45.7 541 22.8 541L0 541Z" fill="#f89b33"></path><path d="M0 513L22.8 512.7C45.7 512.3 91.3 511.7 137 513.2C182.7 514.7 228.3 518.3 274 519.2C319.7 520 365.3 518 411.2 517.8C457 517.7 503 519.3 548.8 518.2C594.7 517 640.3 513 686 510C731.7 507 777.3 505 823 504C868.7 503 914.3 503 937.2 503L960 503L960 541L937.2 541C914.3 541 868.7 541 823 541C777.3 541 731.7 541 686 541C640.3 541 594.7 541 548.8 541C503 541 457 541 411.2 541C365.3 541 319.7 541 274 541C228.3 541 182.7 541 137 541C91.3 541 45.7 541 22.8 541L0 541Z" fill="#f4801f"></path></svg>