<svg id="visual" viewBox="0 0 960 540" width="960" height="540" xmlns="http://www.w3.org/2000/svg" xmlns:xlink="http://www.w3.org/1999/xlink" version="1.1"><path d="M0 93L22.8 98C45.7 103 91.3 113 137 115.7C182.7 118.3 228.3 113.7 274 105.8C319.7 98 365.3 87 411.2 81C457 75 503 74 548.8 77.2C594.7 80.3 640.3 87.7 686 95.2C731.7 102.7 777.3 110.3 823 113C868.7 115.7 914.3 113.3 937.2 112.2L960 111L960 0L937.2 0C914.3 0 868.7 0 823 0C777.3 0 731.7 0 686 0C640.3 0 594.7 0 548.8 0C503 0 457 0 411.2 0C365.3 0 319.7 0 274 0C228.3 0 182.7 0 137 0C91.3 0 45.7 0 22.8 0L0 0Z" fill="#f4801f"></path><path d="M0 74L22.8 78C45.7 82 91.3 90 137 91.3C182.7 92.7 228.3 87.3 274 88.5C319.7 89.7 365.3 97.3 411.2 98.2C457 99 503 93 548.8 86C594.7 79 640.3 71 686 73.5C731.7 76 777.3 89 823 93C868.7 97 914.3 92 937.2 89.5L960 87L960 0L937.2 0C914.3 0 868.7 0 823 0C777.3 0 731.7 0 686 0C640.3 0 594.7 0 548.8 0C503 0 457 0 411.2 0C365.3 0 319.7 0 274 0C228.3 0 182.7 0 137 0C91.3 0 45.7 0 22.8 0L0 0Z" fill="#f89b33"></path><path d="M0 69L22.8 64.5C45.7 60 91.3 51 137 46.8C182.7 42.7 228.3 43.3 274 44.5C319.7 45.7 365.3 47.3 411.2 47.5C457 47.7 503 46.3 548.8 47.7C594.7 49 640.3 53 686 59.5C731.7 66 777.3 75 823 73.3C868.7 71.7 914.3 59.3 937.2 53.2L960 47L960 0L937.2 0C914.3 0 868.7 0 823 0C777.3 0 731.7 0 686 0C640.3 0 594.7 0 548.8 0C503 0 457 0 411.2 0C365.3 0 319.7 0 274 0C228.3 0 182.7 0 137 0C91.3 0 45.7 0 22.8 0L0 0Z" fill="#f9ab41"></path><path d="M0 31L22.8 31.2C45.7 31.3 91.3 31.7 137 31.8C182.7 32 228.3 32 274 31.8C319.7 31.7 365.3 31.3 411.2 36C457 40.7 503 50.3 548.8 53.7C594.7 57 640.3 54 686 53.7C731.7 53.3 777.3 55.7 823 53.7C868.7 51.7 914.3 45.3 937.2 42.2L960 39L960 0L937.2 0C914.3 0 868.7 0 823 0C777.3 0 731.7 0 686 0C640.3 0 594.7 0 548.8 0C503 0 457 0 411.2 0C365.3 0 319.7 0 274 0C228.3 0 182.7 0 137 0C91.3 0 45.7 0 22.8 0L0 0Z" fill="#f89b33"></path><path d="M0 15L22.8 15.8C45.7 16.7 91.3 18.3 137 18.5C182.7 18.7 228.3 17.3 274 17.8C319.7 18.3 365.3 20.7 411.2 24.5C457 28.3 503 33.7 548.8 36.2C594.7 38.7 640.3 38.3 686 35.7C731.7 33 777.3 28 823 27.2C868.7 26.3 914.3 29.7 937.2 31.3L960 33L960 0L937.2 0C914.3 0 868.7 0 823 0C777.3 0 731.7 0 686 0C640.3 0 594.7 0 548.8 0C503 0 457 0 411.2 0C365.3 0 319.7 0 274 0C228.3 0 182.7 0 137 0C91.3 0 45.7 0 22.8 0L0 0Z" fill="#f4801f"></path></svg>